<svg
  version="1.1"
  xmlns="http://www.w3.org/2000/svg"
  xmlns:xlink="http://www.w3.org/1999/xlink"
  width="48px"
  height="48px"
  viewBox="-16 -8 36 36"
  enable-background="new 0 0 18.625 16.924"
  xml:space="preserve"
>
  <path
    fill="#E6E6E6"
    d="M4.579,16.924c2.561,0,4.003-1.559,4.003-3.792c0-3.628-3.804-3.923-3.804-4.174c0-3.541,3.829-7.29,3.829-7.29C8.454,0.673,7.497,0.17,6.032,0C6.032,0,0,4.13,0,11.21C0,14.733,1.542,16.924,4.579,16.924L4.579,16.924z M14.598,16.924c2.561,0,4.003-1.559,4.003-3.792c0-3.628-3.803-3.923-3.803-4.174c0-3.541,3.828-7.29,3.828-7.29C18.473,0.673,17.515,0.17,16.05,0c0,0-6.032,4.13-6.032,11.21C10.019,14.733,11.561,16.924,14.598,16.924z"
  />
</svg>