<?xml version="1.0" encoding="utf-8"?>
<!-- Generator: Adobe Illustrator 18.0.0, SVG Export Plug-In . SVG Version: 6.00 Build 0)  -->
<!DOCTYPE svg PUBLIC "-//W3C//DTD SVG 1.1//EN" "http://www.w3.org/Graphics/SVG/1.1/DTD/svg11.dtd">
<svg version="1.1" xmlns="http://www.w3.org/2000/svg" xmlns:xlink="http://www.w3.org/1999/xlink" x="0px" y="0px"
	 viewBox="-56.131 25.5 1002.694 200.792" enable-background="new -56.131 25.5 1002.694 200.792" xml:space="preserve">
<g id="Layer_12">
	<path fill="#222222" d="M825.413,103.037v55.996h-11.182v-55.996h-20.088V92.804h51.353v10.232H825.413z"/>
</g>
<g id="Layer_11">
	<path fill="#222222" d="M760.621,92.804h11.18v66.23h-12.127l-37.52-48.323v48.323h-11.18v-66.23h11.18l38.468,49.458V92.804
		L760.621,92.804z"/>
</g>
<g id="Layer_10">
	<path fill="#222222" d="M638.793,92.804h47.658v10.518h-47.658V92.804z M638.793,148.518h47.658v10.521h-47.658V148.518z
		 M638.793,120.85h47.658v9.949h-47.658V120.85z"/>
</g>
<g id="Layer_9">
	<path fill="#222222" d="M546.622,159.033h-11.177V92.804h17.43l19.991,41.594l19.988-41.594h17.338v66.23h-11.18v-51.732
		l-23.12,45.953h-6.253l-23.023-45.953L546.622,159.033L546.622,159.033z"/>
</g>
<g id="Layer_8">
	<path fill="#222222" d="M495.669,92.804h11.175v66.23h-11.175V92.804z"/>
</g>
<g id="Layer_7">
	<path fill="#222222" d="M469.347,114.312c0,10.927-4.772,17.813-14.313,20.656l17.34,24.069H458.16l-15.824-22.266h-14.685v22.264
		h-11.181V92.804h24.634c10.107,0,17.337,1.704,21.696,5.115C467.163,101.331,469.347,106.794,469.347,114.312z M454.47,123.691
		c2.274-1.957,3.411-5.099,3.411-9.428c0-4.326-1.169-7.295-3.505-8.906c-2.339-1.611-6.507-2.417-12.507-2.417h-14.214v23.689
		h13.927C447.9,126.632,452.196,125.649,454.47,123.691z"/>
</g>
<g id="Layer_6">
	<path fill="#222222" d="M344.298,92.804h47.657v10.518h-47.657V92.804z M344.298,148.518h47.657v10.521h-47.657V148.518z
		 M344.298,120.85h47.657v9.949h-47.657V120.85z"/>
</g>
<g id="Layer_5">
	<path fill="#222222" d="M313.995,98.582c4.61,3.854,6.919,9.793,6.919,17.815c0,8.022-2.356,13.897-7.061,17.623
		c-4.706,3.724-11.923,5.592-21.651,5.592h-11.749v19.422h-11.18v-66.23h22.742C302.057,92.804,309.385,94.731,313.995,98.582z
		 M306.085,125.917c2.243-2.367,3.363-5.841,3.363-10.421c0-4.579-1.422-7.816-4.264-9.712c-2.842-1.895-7.294-2.842-13.359-2.842
		h-11.369v26.529h12.981C299.624,129.471,303.842,128.287,306.085,125.917z"/>
</g>
<g id="Layer_4">
	<path fill="#222222" d="M234.522,159.033l-16.296-24.921h-0.473l-16.299,24.921h-13.927l22.741-34.017l-21.129-32.215h13.833
		l14.781,22.359h0.473l14.779-22.359h13.833l-21.126,32.215l22.74,34.017H234.522z"/>
</g>
<g id="Layer_3">
	<g>
		<rect x="123.117" y="92.804" fill="#222222" width="47.656" height="10.517"/>
		<rect x="123.117" y="120.85" fill="#222222" width="47.656" height="9.949"/>
		<rect x="44.961" y="148.518" fill="#222222" width="125.813" height="10.515"/>
	</g>
</g>
<g id="Layer_2">
	<g>
		<path fill="#222222" d="M48.689,96.085h-3.684v-3.317h11.177v3.317h-3.684v18.857h-3.809V96.085z"/>
		<path fill="#222222" d="M62.111,114.941V92.769h3.808v9.028h4.054v-9.028h3.808v22.172h-3.808v-9.827h-4.054v9.827H62.111z"/>
		<path fill="#222222" d="M81.15,114.941V92.769h10.196v3.317h-6.389v5.712h4.914v3.318h-4.914v6.511h6.818v3.318L81.15,114.941
			L81.15,114.941z"/>
	</g>
</g>
</svg>
